<svg version="1.0" xmlns="http://www.w3.org/2000/svg"
 width="512.000000pt" height="512.000000pt" viewBox="0 0 512.000000 512.000000"
 preserveAspectRatio="xMidYMid meet">

<g transform="translate(0.000000,512.000000) scale(0.100000,-0.100000)"
fill="rgb(90, 90, 90)" font-weight="bold" stroke="none">
<path d="M2390 5110 c-613 -38 -1193 -302 -1635 -745 -450 -449 -707 -1020
-745 -1653 -44 -735 223 -1435 745 -1957 449 -450 1020 -707 1653 -745 735
-44 1435 223 1957 745 450 449 707 1020 745 1653 44 735 -223 1435 -745 1957
-526 526 -1227 791 -1975 745z m515 -494 c448 -83 813 -273 1126 -585 398
-398 609 -909 609 -1471 0 -562 -211 -1073 -609 -1471 -314 -313 -676 -501
-1131 -586 -136 -25 -544 -25 -680 0 -457 85 -816 272 -1136 591 -268 268
-445 578 -540 943 -45 176 -64 331 -64 523 0 566 209 1071 609 1471 327 327
732 529 1187 594 134 19 504 14 629 -9z"/>
<path d="M2078 3533 l-138 -4 0 -1009 0 -1010 205 0 205 0 0 380 0 380 215 0
c334 0 498 24 643 96 136 67 234 193 273 354 18 72 18 298 0 370 -25 103 -79
200 -150 271 -123 123 -224 155 -531 169 -193 9 -406 10 -722 3z m742 -344
c176 -28 250 -107 249 -264 0 -156 -58 -234 -207 -278 -55 -16 -108 -20 -289
-24 l-223 -5 0 291 0 291 203 0 c111 0 231 -5 267 -11z"/>
</g>
</svg>
